<svg id="Grupo_7223" data-name="Grupo 7223" xmlns="http://www.w3.org/2000/svg" width="26.471" height="33.182" viewBox="0 0 26.471 33.182">
  <path id="Trazado_9" data-name="Trazado 9" d="M11.12,22.242v6.712l13.235-6.712Z" transform="translate(2.114 4.228)" fill="#f7f7f7"/>
  <path id="Trazado_10" data-name="Trazado 10" d="M0,0H26.471V26.471H0Z" fill="#fff"/>
  <path id="Trazado_11" data-name="Trazado 11" d="M16.17,6.827H3.266a.451.451,0,0,0-.451.451v3.17a.451.451,0,0,0,.451.451h12.9a.451.451,0,0,0,.451-.451V7.278a.451.451,0,0,0-.451-.451m-3.921,5.879H9.078a.451.451,0,0,0-.451.451v3.17a.451.451,0,0,0,.451.451h3.17a.451.451,0,0,0,.451-.451v-3.17a.451.451,0,0,0-.451-.451M6.436,12.8H3.266a.451.451,0,0,0-.451.451v3.17a.451.451,0,0,0,.451.451h3.17a.451.451,0,0,0,.451-.451v-3.17a.451.451,0,0,0-.451-.451m15.7-5.971h-3.17a.451.451,0,0,0-.451.451v3.17a.451.451,0,0,0,.451.451h3.17a.451.451,0,0,0,.451-.451V7.278a.451.451,0,0,0-.451-.451" transform="translate(0.535 1.298)" fill="#1f1f1f"/>
</svg>
