<svg xmlns="http://www.w3.org/2000/svg" xmlns:xlink="http://www.w3.org/1999/xlink" width="432.692" height="170.248" viewBox="0 0 432.692 170.248">
  <defs>
    <clipPath id="clip-path">
      <rect id="Rect치ngulo_1928" data-name="Rect치ngulo 1928" width="51.277" height="49.763" fill="#fff"/>
    </clipPath>
    <clipPath id="clip-path-2">
      <rect id="Rect치ngulo_1930" data-name="Rect치ngulo 1930" width="52.06" height="50.523" fill="#fff"/>
    </clipPath>
  </defs>
  <g id="Grupo_7382" data-name="Grupo 7382" transform="translate(-391 -54)">
    <g id="Grupo_7223" data-name="Grupo 7223" transform="translate(391 54)">
      <path id="Trazado_9" data-name="Trazado 9" d="M11.12,22.242V32.916L32.167,22.242Z" transform="translate(9.925 19.851)" fill="#1eb060"/>
      <path id="Trazado_10" data-name="Trazado 10" d="M0,0H42.1V42.1H0Z" fill="#4ab96d"/>
      <path id="Trazado_11" data-name="Trazado 11" d="M24.053,6.827H3.532a.717.717,0,0,0-.717.717v5.042a.717.717,0,0,0,.717.717h20.52a.717.717,0,0,0,.717-.717V7.544a.717.717,0,0,0-.717-.717m-6.236,9.349H12.775a.717.717,0,0,0-.717.717v5.042a.717.717,0,0,0,.717.717h5.042a.717.717,0,0,0,.717-.717V16.893a.717.717,0,0,0-.717-.717m-9.243.146H3.532a.717.717,0,0,0-.717.717v5.042a.717.717,0,0,0,.717.717H8.574a.717.717,0,0,0,.717-.717V17.039a.717.717,0,0,0-.717-.717M33.54,6.827H28.5a.717.717,0,0,0-.717.717v5.042a.717.717,0,0,0,.717.717H33.54a.717.717,0,0,0,.717-.717V7.544a.717.717,0,0,0-.717-.717" transform="translate(2.512 6.093)" fill="#fff"/>
    </g>
    <g id="Grupo_7252" data-name="Grupo 7252" transform="translate(-286.859 -99.063)">
      <g id="Grupo_7245" data-name="Grupo 7245" transform="translate(1012.225 260.268)">
        <ellipse id="Elipse_33" data-name="Elipse 33" cx="3.914" cy="3.799" rx="3.914" ry="3.799" transform="translate(35.585 17.336)" fill="#f9d048"/>
        <path id="Trazado_411" data-name="Trazado 411" d="M1115.88,316.751v40.836h37.38" transform="translate(-1113.76 -336.451)" fill="none" stroke="#ffd037" stroke-width="3"/>
        <path id="Trazado_412" data-name="Trazado 412" d="M1081.467,270.838h-31.049a3.84,3.84,0,0,0-3.888,3.767v33.9l7.767-7.535h27.17a3.84,3.84,0,0,0,3.888-3.766v-22.6A3.84,3.84,0,0,0,1081.467,270.838Zm0,26.37H1054.3l-3.879,3.766V274.605h31.049Z" transform="translate(-987.03 -268.538)" fill="#ffd037"/>
      </g>
      <g id="Grupo_7247" data-name="Grupo 7247" transform="translate(798.73 269.967)">
        <ellipse id="Elipse_35" data-name="Elipse 35" cx="3.914" cy="3.799" rx="3.914" ry="3.799" transform="translate(151.51 -83.798)" fill="#3578e1"/>
        <path id="Trazado_413" data-name="Trazado 413" d="M914.955,352.758h56.562V263.677h43.838" transform="translate(-856.017 -343.677)" fill="none" stroke="#3578e1" stroke-width="3"/>
        <g id="Grupo_7246" data-name="Grupo 7246" transform="translate(177.339 -94.063)" clip-path="url(#clip-path)">
          <path id="Trazado_414" data-name="Trazado 414" d="M881.73,326.486V309.9H866.774v6.221h-12.82V309.9H839v16.588h14.956v-6.22h4.273V341h8.547v6.221H881.73V330.634H866.774v6.22H862.5V320.266h4.273v6.22Z" transform="translate(-834.726 -303.678)" fill="#3578e1"/>
        </g>
      </g>
      <g id="Grupo_7249" data-name="Grupo 7249" transform="translate(577.007 134.977)">
        <ellipse id="Elipse_37" data-name="Elipse 37" cx="3.914" cy="3.799" rx="3.914" ry="3.799" transform="translate(230.855 162.776)" fill="#1eb060"/>
        <path id="Trazado_415" data-name="Trazado 415" d="M701.809,225.767v74.075H813.563" transform="translate(-578.793 -133.267)" fill="none" stroke="#25b37e" stroke-width="3"/>
        <g id="Grupo_7248" data-name="Grupo 7248" transform="matrix(0.985, 0.174, -0.174, 0.985, 247.457, 129.537)" clip-path="url(#clip-path-2)">
          <path id="Trazado_417" data-name="Trazado 417" d="M665.438,202.691a25.5,25.5,0,0,1-7.657-1.179,2.169,2.169,0,0,0-2.191.505l-3.406,4.147a32.476,32.476,0,0,1-14.945-14.378l4.229-3.494a2.1,2.1,0,0,0,.521-2.147,22.835,22.835,0,0,1-1.214-7.431,2.136,2.136,0,0,0-2.147-2.085h-7.506c-1.171,0-2.581.506-2.581,2.085,0,19.556,16.768,35.808,36.9,35.808a2.229,2.229,0,0,0,2.147-2.484v-7.263A2.135,2.135,0,0,0,665.438,202.691Z" transform="translate(-622.032 -170.314)" fill="#4ab96d"/>
        </g>
      </g>
    </g>
  </g>
</svg>
